<svg version="1.1" id="Layer_1" xmlns="http://www.w3.org/2000/svg" xmlns:xlink="http://www.w3.org/1999/xlink" x="0px" y="0px"
	 width="100%" viewBox="0 0 225 225" enable-background="new 0 0 225 225" xml:space="preserve">
<path fill="#373737" opacity="1.000000" stroke="none" 
	d="
M180.000000,0.999999 
	C181.714355,1.000000 183.428711,1.000000 185.720947,1.353985 
	C198.775116,3.174040 208.458282,9.144487 216.462067,18.864462 
	C221.690323,25.213772 223.495728,32.660740 226.000000,40.000000 
	C226.000000,42.041668 226.000000,44.083332 225.750763,46.893593 
	C225.336380,48.967068 225.027756,50.271866 225.026947,51.576851 
	C225.001511,92.802765 224.994980,134.028702 225.047882,175.254547 
	C225.049911,176.836777 225.668640,178.418198 226.000000,180.000000 
	C226.000000,182.370560 226.000000,184.741104 225.642426,187.697815 
	C221.738174,205.795807 211.700287,217.729233 194.770111,223.690125 
	C192.224548,224.586395 189.592194,225.236176 187.000000,226.000000 
	C184.958328,226.000000 182.916672,226.000000 180.106430,225.750732 
	C178.032974,225.336319 176.728180,225.027679 175.423187,225.026871 
	C134.197250,225.001434 92.971275,224.994843 51.745388,225.047760 
	C50.163185,225.049789 48.581776,225.668594 47.000000,226.000000 
	C44.958332,226.000000 42.916668,226.000000 40.246056,225.662384 
	C21.927759,222.354385 9.955574,212.463257 3.718206,195.646088 
	C2.777657,193.110184 1.904391,190.549316 1.000001,188.000000 
	C1.000000,185.629440 1.000000,183.258896 1.249239,180.113068 
	C1.663583,178.032928 1.972171,176.728119 1.972976,175.423126 
	C1.998412,134.197235 2.004973,92.971306 1.952061,51.745468 
	C1.950030,50.163239 1.331340,48.581806 1.000000,47.000000 
	C1.000000,44.958332 1.000000,42.916668 1.337889,40.245968 
	C3.427856,27.606865 8.732176,17.323612 18.817736,10.638492 
	C25.202770,6.406230 32.894386,4.145154 40.000000,1.000000 
	C42.041668,1.000000 44.083332,1.000000 46.893578,1.249265 
	C48.967022,1.663676 50.271809,1.972342 51.576778,1.973147 
	C92.802727,1.998587 134.028702,2.005151 175.254593,1.952227 
	C176.836807,1.950196 178.418213,1.331396 180.000000,0.999999 
M82.500389,23.525236 
	C70.837616,23.525425 59.174358,23.458748 47.512188,23.542770 
	C33.022205,23.647165 23.591833,32.799202 23.561035,47.135365 
	C23.465822,91.454208 23.569901,135.773453 23.501396,180.092392 
	C23.479465,194.279282 34.175762,203.524994 47.029640,203.502945 
	C91.348557,203.426926 135.667694,203.472763 179.986740,203.476883 
	C182.213135,203.477081 184.693100,204.180145 186.624313,203.436890 
	C198.163605,198.995758 203.468750,190.811508 203.471375,178.078217 
	C203.480240,135.092072 203.481079,92.105927 203.471603,49.119781 
	C203.467911,32.402008 194.632370,23.535254 177.969971,23.528780 
	C146.480118,23.516544 114.990265,23.525265 82.500389,23.525236 
z"/>
<path fill="#FCFCFC" opacity="1.000000" stroke="none" 
	d="
M226.000000,39.531342 
	C223.495728,32.660740 221.690323,25.213772 216.462067,18.864462 
	C208.458282,9.144487 198.775116,3.174040 186.149414,1.353985 
	C199.259064,1.000000 212.518112,1.000000 226.000000,1.000000 
	C226.000000,13.686692 226.000000,26.374687 226.000000,39.531342 
z"/>
<path fill="#FCFCFC" opacity="1.000000" stroke="none" 
	d="
M39.531342,1.000000 
	C32.894386,4.145154 25.202770,6.406230 18.817736,10.638492 
	C8.732176,17.323612 3.427856,27.606865 1.337889,39.808468 
	C1.000000,27.073353 1.000000,14.146708 1.000000,1.000000 
	C13.686713,1.000000 26.374699,1.000000 39.531342,1.000000 
z"/>
<path fill="#FCFCFC" opacity="1.000000" stroke="none" 
	d="
M1.000001,188.468658 
	C1.904391,190.549316 2.777657,193.110184 3.718206,195.646088 
	C9.955574,212.463257 21.927759,222.354385 39.808556,225.662384 
	C27.074316,226.000000 14.148630,226.000000 1.000000,226.000000 
	C1.000000,213.646667 1.000000,201.291992 1.000001,188.468658 
z"/>
<path fill="#FDFDFD" opacity="1.000000" stroke="none" 
	d="
M187.468658,226.000000 
	C189.592194,225.236176 192.224548,224.586395 194.770111,223.690125 
	C211.700287,217.729233 221.738174,205.795807 225.642426,188.141998 
	C226.000000,200.594254 226.000000,213.188522 226.000000,226.000000 
	C213.313263,226.000000 200.625290,226.000000 187.468658,226.000000 
z"/>
<path fill="#414141" opacity="1.000000" stroke="none" 
	d="
M179.531342,0.999999 
	C178.418213,1.331396 176.836807,1.950196 175.254593,1.952227 
	C134.028702,2.005151 92.802727,1.998587 51.576778,1.973147 
	C50.271809,1.972342 48.967022,1.663676 47.331078,1.249265 
	C91.020897,1.000000 135.041794,1.000000 179.531342,0.999999 
z"/>
<path fill="#424242" opacity="1.000000" stroke="none" 
	d="
M1.000000,47.468658 
	C1.331340,48.581806 1.950030,50.163239 1.952061,51.745468 
	C2.004973,92.971306 1.998412,134.197235 1.972976,175.423126 
	C1.972171,176.728119 1.663583,178.032928 1.249239,179.668915 
	C1.000000,135.979111 1.000000,91.958214 1.000000,47.468658 
z"/>
<path fill="#424242" opacity="1.000000" stroke="none" 
	d="
M226.000000,179.531342 
	C225.668640,178.418198 225.049911,176.836777 225.047882,175.254547 
	C224.994980,134.028702 225.001511,92.802765 225.026947,51.576851 
	C225.027756,50.271866 225.336380,48.967068 225.750763,47.331093 
	C226.000000,91.020897 226.000000,135.041794 226.000000,179.531342 
z"/>
<path fill="#414141" opacity="1.000000" stroke="none" 
	d="
M47.468658,226.000000 
	C48.581776,225.668594 50.163185,225.049789 51.745388,225.047760 
	C92.971275,224.994843 134.197250,225.001434 175.423187,225.026871 
	C176.728180,225.027679 178.032974,225.336319 179.668930,225.750732 
	C135.979111,226.000000 91.958214,226.000000 47.468658,226.000000 
z"/>
<path fill="#FFFFFF" opacity="1.000000" stroke="none" 
	d="
M83.000397,23.525257 
	C114.990265,23.525265 146.480118,23.516544 177.969971,23.528780 
	C194.632370,23.535254 203.467911,32.402008 203.471603,49.119781 
	C203.481079,92.105927 203.480240,135.092072 203.471375,178.078217 
	C203.468750,190.811508 198.163605,198.995758 186.624313,203.436890 
	C184.693100,204.180145 182.213135,203.477081 179.986740,203.476883 
	C135.667694,203.472763 91.348557,203.426926 47.029640,203.502945 
	C34.175762,203.524994 23.479465,194.279282 23.501396,180.092392 
	C23.569901,135.773453 23.465822,91.454208 23.561035,47.135365 
	C23.591833,32.799202 33.022205,23.647165 47.512188,23.542770 
	C59.174358,23.458748 70.837616,23.525425 83.000397,23.525257 
M62.251598,124.078827 
	C65.056610,124.330208 67.860008,124.775108 70.666916,124.798431 
	C81.093445,124.885071 91.521141,124.832970 102.167023,124.832970 
	C102.167023,132.385620 102.159332,139.361099 102.169609,146.336563 
	C102.176971,151.331955 101.967232,156.342865 102.287956,161.318893 
	C102.723511,168.076172 107.241493,172.280823 113.507263,172.277878 
	C119.766090,172.274933 124.150856,168.061600 124.743843,161.306107 
	C124.947037,158.991241 124.828682,156.646820 124.830238,154.315872 
	C124.836731,144.556168 124.832977,134.796478 124.832977,124.832977 
	C130.402634,124.832977 135.381607,124.837196 140.360596,124.831963 
	C147.188110,124.824791 154.023712,125.013824 160.840912,124.742950 
	C167.901215,124.462425 172.213181,119.978546 172.275345,113.452362 
	C172.335861,107.097641 167.854065,102.662079 160.767319,102.222092 
	C158.112656,102.057274 155.440308,102.169418 152.776031,102.168396 
	C143.519363,102.164833 134.262711,102.167023 124.832977,102.167023 
	C124.832977,91.900978 124.864616,82.255203 124.814171,72.609871 
	C124.798553,69.623543 124.844772,66.590973 124.357834,63.663551 
	C123.586098,59.023941 119.675598,55.216618 116.214188,55.209240 
	C107.578865,55.190834 104.058945,57.212254 102.730820,63.358883 
	C102.211067,65.764305 102.203171,68.308296 102.190132,70.790375 
	C102.135422,81.206512 102.167030,91.623108 102.167030,102.168488 
	C90.184380,102.168488 78.866989,102.109932 67.550606,102.190781 
	C60.924183,102.238121 56.517975,105.162514 55.086514,110.156624 
	C53.494682,115.710220 55.582432,120.239952 62.251598,124.078827 
z"/>
<path fill="#373737" opacity="1.000000" stroke="none" 
	d="
M61.833866,123.984299 
	C55.582432,120.239952 53.494682,115.710220 55.086514,110.156624 
	C56.517975,105.162514 60.924183,102.238121 67.550606,102.190781 
	C78.866989,102.109932 90.184380,102.168488 102.167030,102.168488 
	C102.167030,91.623108 102.135422,81.206512 102.190132,70.790375 
	C102.203171,68.308296 102.211067,65.764305 102.730820,63.358883 
	C104.058945,57.212254 107.578865,55.190834 116.214188,55.209240 
	C119.675598,55.216618 123.586098,59.023941 124.357834,63.663551 
	C124.844772,66.590973 124.798553,69.623543 124.814171,72.609871 
	C124.864616,82.255203 124.832977,91.900978 124.832977,102.167023 
	C134.262711,102.167023 143.519363,102.164833 152.776031,102.168396 
	C155.440308,102.169418 158.112656,102.057274 160.767319,102.222092 
	C167.854065,102.662079 172.335861,107.097641 172.275345,113.452362 
	C172.213181,119.978546 167.901215,124.462425 160.840912,124.742950 
	C154.023712,125.013824 147.188110,124.824791 140.360596,124.831963 
	C135.381607,124.837196 130.402634,124.832977 124.832977,124.832977 
	C124.832977,134.796478 124.836731,144.556168 124.830238,154.315872 
	C124.828682,156.646820 124.947037,158.991241 124.743843,161.306107 
	C124.150856,168.061600 119.766090,172.274933 113.507263,172.277878 
	C107.241493,172.280823 102.723511,168.076172 102.287956,161.318893 
	C101.967232,156.342865 102.176971,151.331955 102.169609,146.336563 
	C102.159332,139.361099 102.167023,132.385620 102.167023,124.832970 
	C91.521141,124.832970 81.093445,124.885071 70.666916,124.798431 
	C67.860008,124.775108 65.056610,124.330208 61.833866,123.984299 
z"/>
</svg>